<mxfile host="Electron" modified="2023-06-22T09:59:26.349Z" agent="Mozilla/5.0 (Windows NT 10.0; Win64; x64) AppleWebKit/537.36 (KHTML, like Gecko) draw.io/21.3.7 Chrome/112.0.5615.204 Electron/24.5.0 Safari/537.36" etag="iAkbUlvTy2GO9rkARCZv" version="21.3.7" type="device">
  <diagram name="Page-1" id="FFA9UxrkgAWa3RQxIZZn">
    <mxGraphModel dx="1597" dy="1032" grid="1" gridSize="10" guides="1" tooltips="1" connect="1" arrows="1" fold="1" page="1" pageScale="1" pageWidth="850" pageHeight="1100" math="0" shadow="0">
      <root>
        <mxCell id="0" />
        <mxCell id="1" parent="0" />
        <mxCell id="JXWO4xugu6VxWCJeTE2x-30" value="West Europe" style="verticalLabelPosition=middle;verticalAlign=bottom;html=1;shape=mxgraph.basic.rect;fillColor2=none;strokeWidth=1;size=20;indent=5;fillColor=none;strokeColor=#7EA6E0;dashed=1;dashPattern=1 1;fontColor=#7EA6E0;labelPosition=center;align=center;horizontal=1;" parent="1" vertex="1">
          <mxGeometry x="70" y="40" width="330" height="450" as="geometry" />
        </mxCell>
        <mxCell id="JXWO4xugu6VxWCJeTE2x-32" value="North Europe" style="verticalLabelPosition=middle;verticalAlign=bottom;html=1;shape=mxgraph.basic.rect;fillColor2=none;strokeWidth=1;size=20;indent=5;fillColor=none;strokeColor=#7EA6E0;dashed=1;dashPattern=1 1;fontColor=#7EA6E0;labelPosition=center;align=center;horizontal=1;" parent="1" vertex="1">
          <mxGeometry x="425" y="40" width="175" height="450" as="geometry" />
        </mxCell>
        <mxCell id="JXWO4xugu6VxWCJeTE2x-6" value="" style="group" parent="1" vertex="1" connectable="0">
          <mxGeometry x="80" y="70" width="130" height="130" as="geometry" />
        </mxCell>
        <mxCell id="JXWO4xugu6VxWCJeTE2x-3" value="" style="ellipse;shape=doubleEllipse;whiteSpace=wrap;html=1;aspect=fixed;" parent="JXWO4xugu6VxWCJeTE2x-6" vertex="1">
          <mxGeometry width="130" height="130" as="geometry" />
        </mxCell>
        <mxCell id="JXWO4xugu6VxWCJeTE2x-4" value="spoke-01" style="aspect=fixed;html=1;points=[];align=center;image;fontSize=12;image=img/lib/azure2/networking/Virtual_Networks.svg;" parent="JXWO4xugu6VxWCJeTE2x-6" vertex="1">
          <mxGeometry x="31.5" y="45" width="67" height="40" as="geometry" />
        </mxCell>
        <mxCell id="JXWO4xugu6VxWCJeTE2x-7" value="" style="group" parent="1" vertex="1" connectable="0">
          <mxGeometry x="257" y="70" width="130" height="130" as="geometry" />
        </mxCell>
        <mxCell id="JXWO4xugu6VxWCJeTE2x-8" value="" style="ellipse;shape=doubleEllipse;whiteSpace=wrap;html=1;aspect=fixed;" parent="JXWO4xugu6VxWCJeTE2x-7" vertex="1">
          <mxGeometry width="130" height="130" as="geometry" />
        </mxCell>
        <mxCell id="JXWO4xugu6VxWCJeTE2x-9" value="spoke-02" style="aspect=fixed;html=1;points=[];align=center;image;fontSize=12;image=img/lib/azure2/networking/Virtual_Networks.svg;" parent="JXWO4xugu6VxWCJeTE2x-7" vertex="1">
          <mxGeometry x="31.5" y="45" width="67" height="40" as="geometry" />
        </mxCell>
        <mxCell id="JXWO4xugu6VxWCJeTE2x-11" value="" style="group" parent="1" vertex="1" connectable="0">
          <mxGeometry x="433" y="70" width="130" height="130" as="geometry" />
        </mxCell>
        <mxCell id="JXWO4xugu6VxWCJeTE2x-12" value="" style="ellipse;shape=doubleEllipse;whiteSpace=wrap;html=1;aspect=fixed;" parent="JXWO4xugu6VxWCJeTE2x-11" vertex="1">
          <mxGeometry width="130" height="130" as="geometry" />
        </mxCell>
        <mxCell id="JXWO4xugu6VxWCJeTE2x-13" value="spoke-03" style="aspect=fixed;html=1;points=[];align=center;image;fontSize=12;image=img/lib/azure2/networking/Virtual_Networks.svg;" parent="JXWO4xugu6VxWCJeTE2x-11" vertex="1">
          <mxGeometry x="31.5" y="45" width="67" height="40" as="geometry" />
        </mxCell>
        <mxCell id="JXWO4xugu6VxWCJeTE2x-35" value="" style="endArrow=classic;startArrow=classic;html=1;rounded=0;fontColor=#7EA6E0;entryX=0.5;entryY=1;entryDx=0;entryDy=0;exitX=0;exitY=0;exitDx=0;exitDy=0;strokeColor=#7EA6E0;" parent="1" source="JXWO4xugu6VxWCJeTE2x-2" target="JXWO4xugu6VxWCJeTE2x-3" edge="1">
          <mxGeometry width="50" height="50" relative="1" as="geometry">
            <mxPoint x="-20" y="310" as="sourcePoint" />
            <mxPoint x="30" y="180" as="targetPoint" />
          </mxGeometry>
        </mxCell>
        <mxCell id="JXWO4xugu6VxWCJeTE2x-37" value="" style="endArrow=classic;startArrow=classic;html=1;rounded=0;fontColor=#7EA6E0;entryX=0.231;entryY=0.932;entryDx=0;entryDy=0;strokeColor=#7EA6E0;entryPerimeter=0;" parent="1" source="JXWO4xugu6VxWCJeTE2x-2" target="JXWO4xugu6VxWCJeTE2x-12" edge="1">
          <mxGeometry width="50" height="50" relative="1" as="geometry">
            <mxPoint x="312.175144212722" y="277.8248557872781" as="sourcePoint" />
            <mxPoint x="332" y="210" as="targetPoint" />
          </mxGeometry>
        </mxCell>
        <mxCell id="JXWO4xugu6VxWCJeTE2x-36" value="" style="endArrow=classic;startArrow=classic;html=1;rounded=0;fontColor=#7EA6E0;entryX=0.5;entryY=1;entryDx=0;entryDy=0;strokeColor=#7EA6E0;" parent="1" source="JXWO4xugu6VxWCJeTE2x-2" target="JXWO4xugu6VxWCJeTE2x-8" edge="1">
          <mxGeometry width="50" height="50" relative="1" as="geometry">
            <mxPoint x="177.824855787278" y="277.824855787278" as="sourcePoint" />
            <mxPoint x="155" y="210" as="targetPoint" />
          </mxGeometry>
        </mxCell>
        <mxCell id="JXWO4xugu6VxWCJeTE2x-39" value="" style="group" parent="1" vertex="1" connectable="0">
          <mxGeometry x="257" y="270" width="130" height="130" as="geometry" />
        </mxCell>
        <mxCell id="JXWO4xugu6VxWCJeTE2x-2" value="" style="ellipse;shape=doubleEllipse;whiteSpace=wrap;html=1;aspect=fixed;" parent="JXWO4xugu6VxWCJeTE2x-39" vertex="1">
          <mxGeometry width="130" height="130" as="geometry" />
        </mxCell>
        <mxCell id="JXWO4xugu6VxWCJeTE2x-1" value="hub-lab-net" style="aspect=fixed;html=1;points=[];align=center;image;fontSize=12;image=img/lib/azure2/networking/Virtual_Networks.svg;" parent="JXWO4xugu6VxWCJeTE2x-39" vertex="1">
          <mxGeometry x="31.5" y="45" width="67" height="40" as="geometry" />
        </mxCell>
        <mxCell id="dC8h2j_e8fjJUz522AtT-1" value="hub-lab-net&lt;br&gt;10.12.1.0/24" style="verticalLabelPosition=middle;verticalAlign=top;shape=mxgraph.basic.rect;fillColor2=none;strokeWidth=1;size=20;indent=5;fillColor=none;strokeColor=#7EA6E0;dashed=1;dashPattern=1 1;fontColor=#888888;labelPosition=center;align=left;horizontal=1;labelBorderColor=none;html=1;" vertex="1" parent="1">
          <mxGeometry x="40" y="600" width="200" height="670" as="geometry" />
        </mxCell>
        <mxCell id="dC8h2j_e8fjJUz522AtT-2" value="" style="image;aspect=fixed;html=1;points=[];align=center;fontSize=12;image=img/lib/azure2/networking/Virtual_Networks.svg;" vertex="1" parent="1">
          <mxGeometry x="40" y="570" width="33.5" height="20" as="geometry" />
        </mxCell>
        <mxCell id="dC8h2j_e8fjJUz522AtT-3" value="default subnet&lt;br&gt;10.12.1.0/24" style="verticalLabelPosition=middle;verticalAlign=top;shape=mxgraph.basic.rect;fillColor2=none;strokeWidth=1;size=20;indent=5;fillColor=#E6E6E6;strokeColor=none;dashed=1;dashPattern=1 1;fontColor=#888888;labelPosition=center;align=left;horizontal=1;labelBorderColor=none;html=1;" vertex="1" parent="1">
          <mxGeometry x="70" y="660" width="140" height="130" as="geometry" />
        </mxCell>
        <mxCell id="dC8h2j_e8fjJUz522AtT-4" value="AzureFirewallSubnet&lt;br&gt;10.12.3.0/24" style="verticalLabelPosition=middle;verticalAlign=top;shape=mxgraph.basic.rect;fillColor2=none;strokeWidth=1;size=20;indent=5;fillColor=#E6E6E6;strokeColor=none;dashed=1;dashPattern=1 1;fontColor=#888888;labelPosition=center;align=left;horizontal=1;labelBorderColor=none;html=1;" vertex="1" parent="1">
          <mxGeometry x="70" y="820" width="140" height="130" as="geometry" />
        </mxCell>
        <mxCell id="dC8h2j_e8fjJUz522AtT-5" value="AzureBastionSubnet&lt;br&gt;10.12.2.0/24" style="verticalLabelPosition=middle;verticalAlign=top;shape=mxgraph.basic.rect;fillColor2=none;strokeWidth=1;size=20;indent=5;fillColor=#E6E6E6;strokeColor=none;dashed=1;dashPattern=1 1;fontColor=#888888;labelPosition=center;align=left;horizontal=1;labelBorderColor=none;html=1;" vertex="1" parent="1">
          <mxGeometry x="70" y="970" width="140" height="130" as="geometry" />
        </mxCell>
        <mxCell id="dC8h2j_e8fjJUz522AtT-6" value="GatewaySubnet&lt;br&gt;10.12.4.0/24" style="verticalLabelPosition=middle;verticalAlign=top;shape=mxgraph.basic.rect;fillColor2=none;strokeWidth=1;size=20;indent=5;fillColor=#E6E6E6;strokeColor=none;dashed=1;dashPattern=1 1;fontColor=#888888;labelPosition=center;align=left;horizontal=1;labelBorderColor=none;html=1;" vertex="1" parent="1">
          <mxGeometry x="70" y="1120" width="140" height="130" as="geometry" />
        </mxCell>
        <mxCell id="dC8h2j_e8fjJUz522AtT-7" value="lab-firewall&lt;br&gt;10.12.3.4" style="image;aspect=fixed;html=1;points=[];align=center;fontSize=12;image=img/lib/azure2/networking/Firewalls.svg;fontColor=#888888;" vertex="1" parent="1">
          <mxGeometry x="116.34" y="865" width="47.33" height="40" as="geometry" />
        </mxCell>
        <mxCell id="dC8h2j_e8fjJUz522AtT-10" value="???" style="shape=image;verticalLabelPosition=bottom;labelBackgroundColor=default;verticalAlign=top;aspect=fixed;imageAspect=0;image=https://www.rbaconsulting.com/wp-content/uploads/2019/10/azure-bastion-icon.png;fontColor=#666666;" vertex="1" parent="1">
          <mxGeometry x="117.5" y="1020" width="45" height="45" as="geometry" />
        </mxCell>
        <mxCell id="dC8h2j_e8fjJUz522AtT-15" value="lab-firewall-ip" style="image;aspect=fixed;html=1;points=[];align=center;fontSize=12;image=img/lib/azure2/general/Browser.svg;fontColor=#666666;" vertex="1" parent="1">
          <mxGeometry x="-60" y="871" width="42.5" height="34" as="geometry" />
        </mxCell>
        <mxCell id="dC8h2j_e8fjJUz522AtT-16" value="???" style="image;aspect=fixed;html=1;points=[];align=center;fontSize=12;image=img/lib/azure2/general/Browser.svg;fontColor=#666666;" vertex="1" parent="1">
          <mxGeometry x="-58.75" y="1026" width="41.25" height="33" as="geometry" />
        </mxCell>
        <mxCell id="dC8h2j_e8fjJUz522AtT-17" value="" style="endArrow=classic;startArrow=classic;html=1;rounded=0;fontSize=12;startSize=8;endSize=8;curved=1;strokeColor=#3399FF;" edge="1" parent="1">
          <mxGeometry width="50" height="50" relative="1" as="geometry">
            <mxPoint y="891" as="sourcePoint" />
            <mxPoint x="110" y="891" as="targetPoint" />
          </mxGeometry>
        </mxCell>
        <mxCell id="dC8h2j_e8fjJUz522AtT-18" value="" style="endArrow=classic;startArrow=classic;html=1;rounded=0;fontSize=12;startSize=8;endSize=8;curved=1;strokeColor=#3399FF;" edge="1" parent="1">
          <mxGeometry width="50" height="50" relative="1" as="geometry">
            <mxPoint y="1042.16" as="sourcePoint" />
            <mxPoint x="110" y="1042.16" as="targetPoint" />
          </mxGeometry>
        </mxCell>
      </root>
    </mxGraphModel>
  </diagram>
</mxfile>
